# xmcd CD database file
#
# Track frame offsets:
#	182
#	20025
#	38317
#	62750
#	82205
#	106092
#	122160
#	148045
#	165497
#	186240
#	211457
#	230115
#
# Disc length: 3366 seconds
#
# Revision: 2
# Processed by: cddbd v1.5PL3 Copyright (c) Steve Scherf et al.
# Submitted via: CDex 1.51
#
DISCID=a70d240c
DTITLE=Storyville - Dog Years
DYEAR=1997
DGENRE=Blues
TTITLE0=Enough
TTITLE1=Searching Understone
TTITLE2=Don't Make Me Suffer
TTITLE3=Who's Left Standing?
TTITLE4=Two People
TTITLE5=Born without You
TTITLE6=Talk to Me
TTITLE7=Keep a Handle on It
TTITLE8=There's a Light
TTITLE9=Fairplay
TTITLE10=It ain't No Fun to Me
TTITLE11=Lucky (One More Time)
EXTD=YEAR: 1997
EXTT0=
EXTT1=
EXTT2=
EXTT3=
EXTT4=
EXTT5=
EXTT6=
EXTT7=
EXTT8=
EXTT9=
EXTT10=
EXTT11=
PLAYORDER=
